{
  "source": "C:\\Users\\Peter\\Desktop\\stuff\\MIUN\\quantitative_research\\video_compression\\videos\\BVI-HD\\Surfers_1920x1080_30fps.mp4",
  "output": "C:\\Users\\Peter\\Desktop\\stuff\\MIUN\\quantitative_research\\video_compression\\compressed_videos\\BVI-HD\\av1\\12\\Surfers_1920x1080_30fps_av1.mkv",
  "codec": "av1",
  "ok": "Input #0, mov,mp4,m4a,3gp,3g2,mj2, from 'C:\\Users\\Peter\\Desktop\\stuff\\MIUN\\quantitative_research\\video_compression\\videos\\BVI-HD\\Surfers_1920x1080_30fps.mp4':\n  Metadata:\n    major_brand     : isom\n    minor_version   : 512\n    compatible_brands: isomiso2avc1mp41\n    encoder         : Lavf54.28.101\n  Duration: 00:00:05.00, start: 0.000000, bitrate: 232762 kb/s\n  Stream #0:0[0x1](und): Video: h264 (High 4:4:4 Predictive) (avc1 / 0x31637661), yuv420p(progressive), 1920x1080, 232759 kb/s, 30 fps, 30 tbr, 30 tbn (default)\n    Metadata:\n      handler_name    : VideoHandler\n      vendor_id       : [0][0][0][0]\n[out#0/matroska @ 0000021a7c65aa80] Codec AVOption b:a (set bitrate (in bits/s)) has not been used for any stream. The most likely reason is either wrong type (e.g. a video option with no video streams) or that it is a private option of some decoder which was not actually used for any stream.\nStream mapping:\n  Stream #0:0 -> #0:0 (h264 (native) -> av1 (libsvtav1))\nPress [q] to stop, [?] for help\nSvt[info]: -------------------------------------------\nSvt[info]: SVT [version]:\tSVT-AV1 Encoder Lib v3.1.0-19-g6ecfe8ec\nSvt[info]: SVT [build]  :\tGCC 15.2.0\t 64 bit\nSvt[info]: LIB Build date: Aug 17 2025 11:37:13\nSvt[info]: -------------------------------------------\nSvt[info]: Level of Parallelism: 5\nSvt[info]: Number of PPCS 93\nSvt[info]: [asm level on system : up to avx2]\nSvt[info]: [asm level selected : up to avx2]\nSvt[info]: -------------------------------------------\nSvt[info]: SVT [config]: main profile\ttier (auto)\tlevel (auto)\nSvt[info]: SVT [config]: width / height / fps numerator / fps denominator \t\t: 1920 / 1080 / 30 / 1\nSvt[info]: SVT [config]: bit-depth / color format \t\t\t\t\t: 8 / YUV420\nSvt[info]: SVT [config]: preset / tune / pred struct \t\t\t\t\t: 4 / PSNR / random access\nSvt[info]: SVT [config]: gop size / mini-gop size / key-frame type \t\t\t: 161 / 16 / key frame\nSvt[info]: SVT [config]: BRC mode / target bitrate (kbps)\t\t\t\t: VBR / 12000 \nSvt[info]: SVT [config]: AQ mode / Variance Boost \t\t\t\t\t: 2 / 0\nSvt[info]: SVT [config]: sharpness / luminance-based QP bias \t\t\t\t: 0 / 0\nSvt[info]: SVT [config]: QP scale compress strength \t\t\t\t\t: 0\nSvt[info]: -------------------------------------------\nOutput #0, matroska, to 'C:\\Users\\Peter\\Desktop\\stuff\\MIUN\\quantitative_research\\video_compression\\compressed_videos\\BVI-HD\\av1\\12\\Surfers_1920x1080_30fps_av1.mkv':\n  Metadata:\n    major_brand     : isom\n    minor_version   : 512\n    compatible_brands: isomiso2avc1mp41\n    encoder         : Lavf62.3.100\n  Stream #0:0(und): Video: av1 (AV01 / 0x31305641), yuv420p(tv, progressive), 1920x1080, q=2-31, 12000 kb/s, 30 fps, 1k tbn (default)\n    Metadata:\n      encoder         : Lavc62.11.100 libsvtav1\n      handler_name    : VideoHandler\n      vendor_id       : [0][0][0][0]\n    Side data:\n      cpb: bitrate max/min/avg: 0/0/12000000 buffer size: 12000000 vbv_delay: N/A\nframe=    0 fps=0.0 q=0.0 size=       0KiB time=N/A bitrate=N/A speed=N/A elapsed=0:00:01.02    \nframe=    0 fps=0.0 q=0.0 size=       0KiB time=N/A bitrate=N/A speed=N/A elapsed=0:00:01.54    \nframe=    0 fps=0.0 q=0.0 size=       0KiB time=N/A bitrate=N/A speed=N/A elapsed=0:00:02.06    \nframe=    0 fps=0.0 q=0.0 size=       0KiB time=N/A bitrate=N/A speed=N/A elapsed=0:00:02.58    \nframe=    0 fps=0.0 q=0.0 size=       0KiB time=N/A bitrate=N/A speed=N/A elapsed=0:00:03.09    \nframe=    0 fps=0.0 q=0.0 size=       0KiB time=N/A bitrate=N/A speed=N/A elapsed=0:00:03.62    \nframe=    0 fps=0.0 q=0.0 size=       0KiB time=N/A bitrate=N/A speed=N/A elapsed=0:00:04.15    \nframe=    1 fps=0.2 q=9.0 size=       1KiB time=00:00:00.00 bitrate=N/A speed=   0x elapsed=0:00:04.67    \nframe=    1 fps=0.2 q=9.0 size=       1KiB time=00:00:00.00 bitrate=N/A speed=   0x elapsed=0:00:05.17    \nframe=    3 fps=0.5 q=18.0 size=       1KiB time=00:00:00.06 bitrate=  85.6kbits/s speed=0.0117x elapsed=0:00:05.70    \nframe=    6 fps=1.0 q=20.0 size=       1KiB time=00:00:00.16 bitrate=  34.2kbits/s speed=0.0268x elapsed=0:00:06.20    \nframe=    8 fps=1.2 q=18.0 size=       1KiB time=00:00:00.23 bitrate=  24.4kbits/s speed=0.0347x elapsed=0:00:06.72    \nframe=   11 fps=1.5 q=15.0 size=       1KiB time=00:00:00.33 bitrate=  17.1kbits/s speed=0.0461x elapsed=0:00:07.23    \nframe=   16 fps=2.1 q=15.0 size=       1KiB time=00:00:00.50 bitrate=  11.4kbits/s speed=0.0645x elapsed=0:00:07.75    \nframe=   19 fps=2.3 q=15.0 size=       1KiB time=00:00:00.60 bitrate=   9.5kbits/s speed=0.0725x elapsed=0:00:08.27    \nframe=   23 fps=2.6 q=16.0 size=       1KiB time=00:00:00.73 bitrate=   7.8kbits/s speed=0.0832x elapsed=0:00:08.81    \nframe=   27 fps=2.9 q=16.0 size=       1KiB time=00:00:00.86 bitrate=   6.6kbits/s speed=0.0925x elapsed=0:00:09.37    \nframe=   32 fps=3.2 q=19.0 size=       1KiB time=00:00:01.03 bitrate=   5.5kbits/s speed=0.105x elapsed=0:00:09.87    \nframe=   36 fps=3.5 q=19.0 size=       1KiB time=00:00:01.16 bitrate=   4.9kbits/s speed=0.112x elapsed=0:00:10.39    \nframe=   39 fps=3.6 q=18.0 size=       1KiB time=00:00:01.26 bitrate=   4.5kbits/s speed=0.116x elapsed=0:00:10.92    \nframe=   42 fps=3.6 q=20.0 size=       1KiB time=00:00:01.36 bitrate=   4.2kbits/s speed=0.119x elapsed=0:00:11.51    \nframe=   45 fps=3.7 q=16.0 size=       1KiB time=00:00:01.43 bitrate=   4.0kbits/s speed=0.119x elapsed=0:00:12.06    \nframe=   49 fps=3.9 q=7.0 size=       1KiB time=00:00:01.56 bitrate=   3.6kbits/s speed=0.124x elapsed=0:00:12.64    \nframe=   51 fps=3.9 q=20.0 size=       1KiB time=00:00:01.66 bitrate=   3.4kbits/s speed=0.126x elapsed=0:00:13.24    \nframe=   57 fps=4.1 q=16.0 size=       1KiB time=00:00:01.86 bitrate=   3.1kbits/s speed=0.134x elapsed=0:00:13.87    \nframe=   57 fps=3.9 q=16.0 size=       1KiB time=00:00:01.86 bitrate=   3.1kbits/s speed=0.128x elapsed=0:00:14.55    \nframe=   59 fps=3.9 q=19.0 size=       1KiB time=00:00:01.93 bitrate=   3.0kbits/s speed=0.127x elapsed=0:00:15.17    \nframe=   61 fps=3.9 q=17.0 size=       1KiB time=00:00:02.00 bitrate=   2.9kbits/s speed=0.127x elapsed=0:00:15.75    \nframe=   65 fps=4.0 q=11.0 size=       1KiB time=00:00:02.13 bitrate=   2.7kbits/s speed=0.131x elapsed=0:00:16.29    \nframe=   69 fps=4.1 q=20.0 size=       1KiB time=00:00:02.26 bitrate=   2.5kbits/s speed=0.135x elapsed=0:00:16.82    \nframe=   73 fps=4.2 q=17.0 size=       1KiB time=00:00:02.40 bitrate=   2.4kbits/s speed=0.138x elapsed=0:00:17.37    \nframe=   73 fps=4.1 q=17.0 size=       1KiB time=00:00:02.40 bitrate=   2.4kbits/s speed=0.134x elapsed=0:00:17.91    \nframe=   77 fps=4.2 q=18.0 size=       1KiB time=00:00:02.53 bitrate=   2.3kbits/s speed=0.137x elapsed=0:00:18.44    \nframe=   81 fps=4.3 q=12.0 size=       1KiB time=00:00:02.66 bitrate=   2.1kbits/s speed=0.14x elapsed=0:00:19.03    \nframe=   85 fps=4.3 q=21.0 size=       1KiB time=00:00:02.80 bitrate=   2.0kbits/s speed=0.143x elapsed=0:00:19.55    \nframe=   89 fps=4.4 q=18.0 size=       1KiB time=00:00:02.93 bitrate=   1.9kbits/s speed=0.146x elapsed=0:00:20.09    \nframe=   93 fps=4.5 q=19.0 size=    5120KiB time=00:00:03.06 bitrate=13677.1kbits/s speed=0.149x elapsed=0:00:20.64    \nframe=   97 fps=4.6 q=12.0 size=    5120KiB time=00:00:03.20 bitrate=13107.2kbits/s speed=0.151x elapsed=0:00:21.18    \nframe=  101 fps=4.6 q=22.0 size=    5120KiB time=00:00:03.33 bitrate=12582.9kbits/s speed=0.153x elapsed=0:00:21.74    \nframe=  105 fps=4.7 q=19.0 size=    5120KiB time=00:00:03.46 bitrate=12099.0kbits/s speed=0.156x elapsed=0:00:22.25    \nframe=  105 fps=4.6 q=19.0 size=    5120KiB time=00:00:03.46 bitrate=12099.0kbits/s speed=0.152x elapsed=0:00:22.78    \nframe=  109 fps=4.7 q=19.0 size=    5120KiB time=00:00:03.60 bitrate=11650.8kbits/s speed=0.154x elapsed=0:00:23.36    \nframe=  113 fps=4.7 q=13.0 size=    5120KiB time=00:00:03.73 bitrate=11234.7kbits/s speed=0.156x elapsed=0:00:23.94    \nframe=  117 fps=4.8 q=19.0 size=    5120KiB time=00:00:03.86 bitrate=10847.3kbits/s speed=0.158x elapsed=0:00:24.46    \nframe=  121 fps=4.8 q=19.0 size=    5120KiB time=00:00:04.00 bitrate=10485.8kbits/s speed=0.16x elapsed=0:00:25.01    \nframe=  121 fps=4.7 q=19.0 size=    5120KiB time=00:00:04.00 bitrate=10485.8kbits/s speed=0.156x elapsed=0:00:25.57    \nframe=  125 fps=4.8 q=21.0 size=    5120KiB time=00:00:04.13 bitrate=10147.5kbits/s speed=0.158x elapsed=0:00:26.09    \nframe=  129 fps=4.8 q=13.0 size=    5120KiB time=00:00:04.26 bitrate=9830.4kbits/s speed=0.16x elapsed=0:00:26.62    \nframe=  133 fps=4.9 q=24.0 size=    5120KiB time=00:00:04.40 bitrate=9532.5kbits/s speed=0.162x elapsed=0:00:27.15    \nframe=  137 fps=5.0 q=21.0 size=    5120KiB time=00:00:04.53 bitrate=9252.1kbits/s speed=0.164x elapsed=0:00:27.66    \nframe=  139 fps=4.9 q=24.0 size=    5120KiB time=00:00:04.60 bitrate=9118.1kbits/s speed=0.163x elapsed=0:00:28.24    \nframe=  143 fps=5.0 q=24.0 size=    5120KiB time=00:00:04.73 bitrate=8861.2kbits/s speed=0.164x elapsed=0:00:28.81    \n[out#0/matroska @ 0000021a7c65aa80] video:7942KiB audio:0KiB subtitle:0KiB other streams:0KiB global headers:0KiB muxing overhead: 0.018788%\nframe=  150 fps=5.2 q=24.0 Lsize=    7944KiB time=00:00:04.96 bitrate=13102.2kbits/s speed=0.172x elapsed=0:00:28.95    \n",
  "seconds": 29.643021821975708,
  "probe_out": {}
}